<svg xmlns="http://www.w3.org/2000/svg" viewBox="0 0 256 256" width="256" height="256">
  <rect width="256" height="256" rx="28" fill="#132340"/>
  <path fill="#00C2FF" d="M128 56c-39.77 0-72 32.23-72 72 0 31.82 20.63 58.82 49.25 68.37 3.6.66 4.92-1.56 4.92-3.47 0-1.71-.06-6.24-.1-12.25-20.03 4.35-24.26-9.66-24.26-9.66-3.28-8.33-8-10.55-8-10.55-6.54-4.47.5-4.38.5-4.38 7.23.51 11.04 7.43 11.04 7.43 6.43 11.02 16.87 7.84 20.99 6 .65-4.66 2.52-7.84 4.58-9.65-16-1.82-32.83-8-32.83-35.6 0-7.86 2.8-14.3 7.41-19.33-.74-1.82-3.21-9.15.7-19.06 0 0 6.05-1.94 19.83 7.38a68.79 68.79 0 0 1 36.1 0c13.77-9.32 19.81-7.38 19.81-7.38 3.93 9.91 1.46 17.24.72 19.06 4.61 5.04 7.4 11.47 7.4 19.33 0 27.67-16.85 33.76-32.9 35.54 2.58 2.23 4.89 6.62 4.89 13.34 0 9.63-.09 17.39-.09 19.75 0 1.93 1.3 4.17 4.95 3.47A72.02 72.02 0 0 0 200 128c0-39.77-32.23-72-72-72z"/>
</svg>
